<?xml version="1.0" standalone="no"?>
<!DOCTYPE svg PUBLIC "-//W3C//DTD SVG 20010904//EN"
 "http://www.w3.org/TR/2001/REC-SVG-20010904/DTD/svg10.dtd">
<svg version="1.0" xmlns="http://www.w3.org/2000/svg"
 width="500.000000pt" height="500.000000pt" viewBox="0 0 500.000000 500.000000"
 preserveAspectRatio="xMidYMid meet">
<metadata>
Created by potrace 1.14, written by Peter Selinger 2001-2017
</metadata>
<g transform="translate(0.000000,500.000000) scale(0.100000,-0.100000)"
fill="#000000" stroke="none">
<path d="M2250 4988 c-206 -20 -543 -105 -715 -180 -310 -137 -572 -313 -795
-538 -165 -166 -225 -239 -339 -415 -175 -268 -337 -685 -367 -944 -3 -31 -8
-59 -10 -62 -24 -41 -24 -656 0 -698 2 -3 6 -29 10 -58 3 -28 8 -57 11 -65 2
-7 6 -24 9 -38 10 -62 39 -172 63 -245 128 -394 327 -719 618 -1010 279 -279
584 -470 960 -602 39 -13 77 -26 85 -28 8 -2 58 -15 110 -29 108 -28 245 -52
370 -65 83 -9 466 -7 505 2 16 4 116 18 160 22 6 1 35 7 65 13 30 7 65 14 77
16 58 12 190 52 300 92 481 176 912 513 1199 939 56 83 148 233 149 245 0 3
19 43 42 90 123 255 196 513 230 817 12 107 8 447 -6 563 -10 82 -42 247 -65
335 -16 61 -28 103 -36 120 -5 11 -12 31 -15 45 -15 57 -91 232 -147 340 -70
134 -178 302 -269 415 -62 78 -243 265 -324 335 -272 236 -658 435 -1013 524
-101 26 -125 30 -232 46 -36 6 -78 13 -95 16 -52 9 -446 11 -535 2z"/>
</g>
</svg>
