<?xml version="1.0" standalone="no"?>
<!DOCTYPE svg PUBLIC "-//W3C//DTD SVG 20010904//EN"
 "http://www.w3.org/TR/2001/REC-SVG-20010904/DTD/svg10.dtd">
<svg version="1.0" xmlns="http://www.w3.org/2000/svg"
 width="4134.000000pt" height="4134.000000pt" viewBox="0 0 4134.000000 4134.000000"
 preserveAspectRatio="xMidYMid meet">
<metadata>
Created by potrace 1.14, written by Peter Selinger 2001-2017
</metadata>
<g transform="translate(0.000000,4134.000000) scale(0.100000,-0.100000)"
fill="#000000" stroke="none">
<path d="M20248 41335 c-2 -2 -77 -6 -168 -9 -91 -4 -185 -9 -210 -11 -25 -2
-88 -6 -140 -10 -52 -3 -111 -7 -130 -9 -19 -2 -71 -7 -115 -10 -107 -9 -183
-16 -221 -21 -17 -2 -57 -7 -90 -10 -94 -10 -274 -32 -309 -39 -11 -2 -51 -7
-90 -11 -38 -4 -72 -8 -75 -10 -4 -2 -24 -6 -46 -9 -34 -4 -115 -16 -204 -31
-14 -2 -41 -7 -60 -10 -19 -3 -57 -10 -85 -15 -27 -5 -63 -12 -80 -15 -16 -2
-55 -10 -85 -16 -30 -6 -68 -13 -85 -15 -16 -2 -36 -6 -44 -9 -8 -3 -30 -8
-50 -11 -20 -3 -73 -14 -118 -25 -44 -10 -94 -21 -110 -24 -48 -9 -63 -12
-243 -55 -96 -23 -249 -62 -340 -87 -90 -25 -171 -47 -180 -49 -93 -22 -435
-129 -725 -228 -998 -339 -2067 -862 -2935 -1435 -237 -156 -600 -410 -630
-441 -3 -3 -23 -18 -46 -33 -22 -15 -49 -35 -60 -45 -11 -9 -55 -44 -99 -77
-139 -105 -604 -490 -645 -535 -3 -3 -27 -25 -55 -49 -204 -181 -645 -614
-812 -797 -39 -44 -82 -91 -95 -105 -54 -59 -158 -177 -184 -209 -16 -19 -31
-37 -35 -40 -3 -3 -30 -34 -60 -70 -29 -36 -58 -70 -64 -76 -5 -6 -23 -28 -40
-49 -16 -20 -46 -56 -65 -79 -19 -23 -48 -59 -65 -80 -16 -22 -45 -57 -63 -80
-46 -59 -44 -55 -92 -121 -25 -33 -47 -62 -50 -65 -9 -8 -188 -254 -266 -365
-506 -718 -1006 -1607 -1381 -2455 -30 -69 -63 -143 -73 -165 -75 -165 -263
-641 -360 -910 -67 -186 -186 -531 -195 -565 -2 -8 -13 -42 -24 -75 -25 -78
-101 -321 -111 -360 -4 -16 -22 -78 -39 -137 -72 -249 -93 -324 -97 -348 -3
-14 -13 -54 -23 -90 -17 -57 -63 -238 -76 -295 -2 -11 -11 -49 -20 -85 -19
-77 -123 -542 -130 -579 -3 -14 -7 -37 -10 -51 -28 -141 -55 -281 -60 -305 -2
-16 -9 -55 -15 -85 -14 -75 -16 -89 -39 -220 -11 -63 -23 -131 -27 -150 -3
-19 -7 -44 -8 -55 -2 -11 -6 -40 -10 -65 -8 -45 -10 -62 -21 -135 -3 -23 -8
-52 -10 -65 -3 -14 -7 -45 -10 -70 -3 -25 -8 -56 -10 -70 -2 -14 -7 -45 -10
-70 -3 -25 -10 -76 -15 -115 -14 -100 -25 -195 -35 -285 -4 -30 -8 -66 -10
-80 -2 -14 -7 -54 -10 -90 -3 -36 -8 -76 -10 -90 -2 -14 -7 -59 -11 -100 -3
-41 -8 -86 -9 -100 -1 -14 -6 -63 -10 -110 -4 -47 -8 -101 -10 -120 -6 -61
-14 -172 -20 -250 -3 -41 -7 -104 -10 -140 -8 -99 -16 -241 -29 -535 -3 -49
-8 -151 -11 -225 -20 -425 -27 -554 -30 -605 -2 -27 -3 -64 -4 -81 -1 -16 -9
-39 -19 -50 -9 -10 -73 -84 -142 -164 -127 -147 -167 -194 -185 -214 -79 -87
-266 -334 -377 -496 -249 -364 -448 -735 -630 -1170 -21 -52 -46 -115 -54
-140 -8 -25 -19 -54 -24 -65 -21 -45 -126 -374 -146 -454 -28 -118 -64 -287
-70 -326 -3 -27 -8 -58 -9 -67 -2 -9 -7 -48 -10 -85 -4 -37 -9 -76 -11 -86 -2
-10 -6 -64 -9 -120 -4 -56 -8 -118 -10 -137 -2 -19 -6 -102 -10 -185 -3 -82
-8 -195 -10 -250 -13 -298 -19 -690 -20 -1190 0 -576 6 -801 31 -1095 3 -36 7
-92 10 -125 5 -63 10 -119 18 -195 3 -25 8 -67 11 -95 3 -27 7 -63 9 -80 6
-45 28 -197 31 -220 2 -11 6 -40 10 -65 8 -50 41 -231 49 -270 3 -14 9 -41 12
-60 11 -61 93 -411 119 -510 59 -217 206 -697 234 -765 5 -11 49 -144 99 -296
l90 -277 -107 -318 c-129 -386 -210 -645 -226 -727 -2 -10 -7 -27 -10 -37 -3
-10 -8 -27 -10 -37 -2 -10 -15 -65 -30 -123 -15 -58 -28 -112 -30 -120 -42
-203 -85 -421 -90 -467 -4 -26 -15 -97 -21 -128 -2 -11 -6 -38 -8 -60 -5 -45
-16 -127 -21 -165 -3 -22 -10 -82 -21 -195 -25 -264 -25 -814 0 -1060 2 -16 6
-59 10 -95 3 -36 8 -76 10 -90 3 -14 12 -72 21 -130 9 -58 20 -123 25 -145 5
-22 11 -53 14 -70 10 -54 14 -69 44 -190 17 -66 38 -139 46 -163 8 -23 16 -46
17 -50 9 -40 80 -235 119 -327 94 -222 269 -527 379 -661 14 -18 37 -47 51
-65 72 -95 353 -381 495 -504 50 -43 104 -90 120 -104 41 -37 204 -166 295
-234 41 -31 80 -60 85 -64 24 -20 187 -133 255 -178 41 -28 77 -52 80 -56 7
-7 330 -209 335 -209 3 0 29 -16 59 -35 30 -19 58 -35 61 -35 3 0 22 -10 43
-23 129 -81 489 -262 712 -357 303 -130 446 -178 770 -261 129 -33 252 -65
272 -70 32 -8 40 -17 63 -65 25 -52 120 -247 427 -874 283 -576 457 -916 603
-1175 13 -22 34 -60 47 -85 22 -42 138 -246 158 -280 5 -8 58 -96 116 -195
310 -524 721 -1133 1029 -1526 131 -168 224 -284 242 -304 10 -11 36 -43 58
-70 48 -60 85 -104 208 -245 138 -159 306 -338 473 -504 228 -227 294 -289
564 -526 14 -13 57 -48 95 -79 39 -31 75 -60 81 -66 6 -5 25 -21 43 -35 18
-14 45 -35 59 -46 260 -208 737 -518 1077 -701 224 -121 688 -338 840 -393 11
-4 31 -12 45 -19 186 -83 767 -261 999 -306 9 -1 54 -10 101 -19 47 -9 96 -18
110 -21 14 -3 48 -7 75 -10 28 -3 57 -8 65 -10 8 -2 51 -7 95 -11 44 -3 83 -8
86 -10 4 -2 105 -6 225 -9 292 -8 346 -11 387 -29 49 -20 67 -52 72 -132 11
-152 16 -184 40 -269 76 -261 252 -488 462 -593 162 -82 280 -102 588 -96 127
2 253 6 280 8 28 2 82 7 120 11 39 3 93 8 120 11 28 2 66 6 85 9 19 2 65 7
101 10 36 3 76 7 90 9 13 3 56 7 94 11 73 7 125 12 185 20 19 2 60 7 90 10 30
4 66 8 80 10 14 2 45 7 70 10 25 3 70 10 100 15 30 5 71 12 90 14 57 7 110 16
200 32 47 9 94 17 105 19 57 9 102 17 117 21 10 3 30 7 45 10 127 21 581 128
823 194 291 78 792 242 1030 335 52 20 106 41 120 45 26 9 302 121 355 144 17
8 53 24 80 36 28 12 73 32 100 45 28 12 73 32 100 45 349 155 759 370 1240
650 37 21 210 128 325 200 222 138 844 568 970 670 14 11 90 71 170 132 80 62
147 115 150 118 3 3 23 19 45 35 22 17 42 32 45 35 3 3 41 35 85 70 44 35 96
78 116 94 19 17 46 40 60 51 38 32 223 189 235 200 6 5 42 37 80 70 38 33 87
76 109 97 22 20 67 60 100 90 33 29 74 67 91 83 18 17 79 73 135 125 136 125
791 779 944 944 66 71 134 144 152 163 17 19 63 69 101 111 39 42 81 89 94
103 12 14 55 61 93 104 39 43 75 83 80 89 24 26 309 361 396 466 503 608 1014
1310 1496 2055 39 61 119 184 178 274 159 244 160 245 165 256 3 6 38 60 78
121 l72 111 163 52 c89 29 185 60 212 69 691 216 1157 412 1610 677 224 131
538 343 690 467 110 90 152 124 161 133 6 5 35 30 64 55 30 25 79 67 109 95
90 80 471 464 536 539 33 38 65 74 70 80 218 243 439 603 544 886 24 63 47
124 51 135 8 18 31 95 65 221 15 54 61 251 69 294 2 14 15 86 29 160 28 151
34 183 42 255 4 28 8 61 11 75 21 127 21 702 -1 897 -2 21 -7 67 -10 103 -7
74 -9 91 -30 250 -22 169 -45 305 -90 535 -5 25 -47 212 -60 265 -47 199 -125
477 -183 655 -17 50 -58 178 -92 285 -34 107 -79 249 -101 314 l-38 120 138
415 c202 605 237 715 296 931 73 267 149 585 170 710 3 19 8 42 10 50 2 8 6
31 9 50 3 19 8 46 11 60 6 30 54 321 60 370 8 56 35 281 41 330 2 25 7 63 9
85 3 22 8 69 11 105 3 36 7 81 9 100 2 19 7 82 10 140 4 58 9 125 11 150 26
333 26 1273 -1 1684 -15 243 -17 267 -35 441 -5 50 -12 115 -15 145 -18 179
-64 484 -110 735 -39 210 -104 479 -184 770 -74 269 -230 693 -374 1020 -70
157 -266 556 -328 665 -17 30 -45 80 -61 110 -36 65 -221 376 -280 470 -22 36
-48 77 -57 92 -9 15 -39 64 -68 110 -118 190 -197 387 -218 548 -3 25 -8 56
-10 70 -2 14 -7 48 -10 75 -3 28 -7 68 -10 90 -2 22 -7 83 -10 135 -3 52 -8
118 -10 145 -3 28 -7 86 -10 130 -3 44 -8 105 -11 135 -2 30 -6 82 -9 115 -3
33 -7 76 -10 95 -2 19 -7 67 -10 105 -3 39 -8 81 -10 95 -2 14 -6 52 -10 85
-6 66 -34 286 -40 325 -2 14 -7 50 -10 80 -3 30 -10 80 -15 110 -5 30 -12 74
-15 98 -10 79 -15 118 -20 142 -3 14 -7 43 -10 65 -3 22 -7 51 -10 65 -2 14
-6 41 -9 60 -3 19 -15 89 -26 155 -11 66 -23 135 -26 154 -3 18 -8 43 -10 55
-2 11 -9 48 -14 81 -6 33 -15 83 -20 110 -77 393 -94 478 -130 650 -26 122
-111 495 -119 523 -5 17 -8 32 -5 32 3 0 0 8 -5 18 -5 9 -11 31 -14 47 -13 81
-180 708 -258 970 -89 298 -253 799 -289 880 -5 11 -20 52 -34 90 -21 60 -67
180 -136 355 -69 177 -237 565 -336 780 -174 376 -491 979 -665 1265 -10 17
-26 44 -35 60 -95 169 -453 717 -642 980 -93 129 -348 468 -416 552 -87 108
-285 345 -340 408 -146 167 -117 134 -236 265 -278 306 -691 713 -975 961
-254 221 -333 287 -585 486 -86 68 -227 175 -325 246 -66 47 -124 90 -130 95
-37 29 -278 192 -285 192 -4 0 -10 3 -12 8 -3 7 -18 17 -203 137 -151 98 -380
236 -575 347 -464 264 -884 470 -1405 688 -118 50 -217 90 -221 90 -3 0 -20 6
-37 14 -77 35 -404 152 -647 232 -146 48 -272 89 -280 92 -8 3 -21 6 -27 8 -7
1 -41 11 -75 22 -35 11 -97 30 -138 41 -41 11 -109 29 -150 41 -88 25 -366 97
-401 103 -13 3 -51 12 -84 20 -33 9 -71 18 -85 20 -14 3 -43 10 -65 15 -34 9
-405 86 -473 98 -12 2 -48 8 -80 14 -31 5 -70 12 -87 15 -44 7 -215 36 -250
41 -16 3 -41 7 -55 9 -55 8 -318 44 -370 50 -30 4 -66 8 -80 10 -14 2 -54 6
-90 10 -36 4 -76 8 -90 10 -23 3 -96 10 -220 21 -25 2 -74 6 -110 9 -66 6 -96
8 -295 20 -60 4 -135 9 -165 11 -63 5 -1097 13 -1102 9z m966 -1700 c255 -11
392 -19 516 -30 25 -2 83 -7 130 -11 98 -8 114 -9 195 -18 33 -4 79 -9 103
-11 139 -15 233 -28 457 -60 22 -3 56 -8 75 -11 31 -4 216 -35 295 -49 380
-70 903 -196 1270 -306 222 -67 671 -218 770 -259 11 -5 92 -36 180 -71 569
-221 1192 -531 1709 -852 324 -201 644 -423 936 -651 100 -78 326 -261 340
-276 3 -3 37 -32 75 -65 448 -384 959 -914 1345 -1394 19 -24 40 -48 45 -55 6
-6 22 -27 37 -48 15 -20 34 -42 41 -50 7 -7 24 -29 37 -48 13 -19 27 -37 31
-40 13 -10 286 -386 385 -530 134 -196 304 -458 304 -469 0 -5 4 -11 8 -13 14
-5 281 -458 397 -673 81 -149 315 -625 315 -640 0 -2 14 -34 31 -72 211 -468
453 -1132 644 -1768 37 -121 68 -227 70 -235 3 -8 9 -31 14 -50 5 -19 30 -111
55 -205 26 -93 69 -258 96 -365 42 -169 67 -276 155 -660 12 -53 79 -384 99
-490 15 -78 56 -299 60 -325 45 -280 71 -441 91 -585 41 -286 44 -313 50 -365
3 -27 7 -61 10 -75 2 -14 7 -56 10 -95 3 -38 8 -77 10 -85 2 -8 6 -49 10 -90
3 -41 8 -88 10 -105 2 -16 7 -65 10 -107 4 -43 8 -90 10 -105 2 -16 6 -73 10
-128 3 -55 8 -122 10 -150 5 -58 14 -204 21 -320 17 -295 9 -669 -20 -870 -3
-22 -8 -58 -11 -80 -3 -22 -8 -47 -10 -55 -2 -8 -7 -31 -10 -50 -12 -74 -57
-282 -96 -440 -45 -184 -89 -367 -94 -390 -2 -8 -14 -62 -28 -120 -14 -58 -38
-159 -52 -225 -14 -66 -32 -147 -40 -180 -12 -54 -26 -125 -39 -195 -2 -14
-11 -56 -19 -95 -15 -68 -26 -127 -32 -172 -2 -11 -5 -29 -9 -40 -3 -10 -8
-36 -11 -58 -5 -39 -8 -55 -20 -115 -2 -14 -7 -45 -10 -70 -4 -25 -10 -63 -15
-85 -5 -22 -11 -62 -14 -90 -4 -27 -11 -72 -16 -100 -5 -27 -12 -70 -14 -95
-3 -25 -7 -54 -10 -65 -2 -11 -7 -49 -11 -85 -4 -36 -9 -74 -11 -85 -2 -11 -6
-40 -9 -65 -3 -25 -8 -56 -10 -70 -2 -14 -7 -50 -10 -80 -3 -30 -8 -71 -10
-90 -5 -38 -12 -97 -20 -175 -3 -27 -8 -66 -10 -85 -2 -19 -7 -64 -10 -100 -3
-36 -8 -81 -10 -100 -7 -68 -17 -182 -30 -340 -4 -52 -9 -111 -10 -130 -2 -19
-7 -78 -10 -130 -3 -52 -8 -111 -10 -130 -2 -19 -7 -93 -11 -165 -3 -71 -7
-146 -9 -166 -2 -19 -7 -91 -10 -160 -18 -360 -40 -723 -50 -834 -2 -27 -7
-86 -10 -130 -4 -44 -8 -91 -10 -105 -3 -14 -7 -47 -10 -75 -18 -164 -63 -350
-120 -495 -44 -115 -191 -411 -207 -418 -5 -2 -8 -8 -8 -14 0 -14 -157 -244
-226 -333 -173 -220 -411 -452 -645 -627 -172 -129 -333 -227 -544 -331 -276
-137 -474 -212 -615 -233 -19 -3 -40 -7 -47 -9 -41 -14 -259 -20 -673 -20
-417 1 -583 5 -735 19 -22 2 -76 7 -120 11 -44 4 -88 9 -99 11 -10 2 -44 6
-75 9 -31 4 -63 8 -71 10 -8 2 -37 7 -65 11 -228 29 -616 127 -955 241 -156
52 -519 188 -585 218 -31 14 -486 197 -630 253 -315 123 -753 271 -1130 383
-16 4 -53 15 -81 24 -28 9 -60 17 -71 19 -12 3 -70 18 -129 34 -96 26 -295 77
-342 87 -9 2 -48 11 -87 19 -67 16 -232 51 -285 62 -14 2 -48 9 -76 15 -28 5
-61 12 -75 14 -13 2 -37 7 -54 10 -16 3 -70 12 -120 20 -49 8 -99 17 -110 19
-11 2 -42 7 -70 10 -27 4 -66 10 -85 12 -19 3 -46 7 -60 10 -14 2 -45 6 -70
10 -25 3 -56 7 -70 10 -14 2 -56 6 -94 10 -38 3 -76 8 -85 9 -33 6 -150 18
-286 30 -38 4 -90 8 -115 10 -25 3 -90 7 -145 11 -55 3 -118 7 -140 9 -285 27
-1460 27 -1810 0 -27 -2 -95 -6 -150 -10 -55 -3 -116 -8 -135 -10 -19 -2 -76
-6 -126 -10 -50 -3 -100 -7 -110 -9 -10 -2 -48 -7 -84 -11 -36 -3 -76 -8 -90
-10 -14 -2 -56 -6 -95 -10 -38 -4 -72 -8 -75 -10 -3 -1 -32 -6 -65 -9 -33 -4
-116 -16 -185 -27 -166 -26 -182 -29 -200 -34 -8 -2 -35 -7 -60 -10 -75 -10
-519 -102 -630 -131 -8 -2 -42 -11 -75 -19 -33 -9 -69 -18 -80 -20 -95 -20
-710 -200 -795 -232 -8 -3 -19 -7 -25 -9 -15 -4 -257 -87 -355 -122 -131 -46
-416 -153 -615 -232 -735 -291 -1315 -486 -1654 -556 -101 -21 -102 -21 -147
-28 -22 -4 -64 -11 -94 -16 -30 -5 -75 -12 -100 -15 -25 -3 -56 -8 -70 -10
-48 -9 -85 -14 -145 -20 -33 -4 -67 -8 -75 -10 -8 -2 -51 -7 -95 -11 -44 -3
-87 -8 -96 -9 -8 -2 -53 -6 -100 -10 -46 -4 -100 -8 -119 -10 -245 -24 -872
-24 -996 -1 -10 2 -44 7 -74 10 -30 4 -66 8 -80 11 -14 2 -41 6 -60 9 -97 12
-401 88 -465 115 -11 5 -49 20 -85 34 -325 125 -683 369 -978 667 -427 432
-641 733 -768 1085 -33 91 -95 317 -107 390 -3 17 -10 53 -15 80 -6 28 -13 70
-17 95 -3 25 -8 56 -10 70 -2 14 -6 45 -10 70 -3 25 -7 61 -10 80 -3 19 -7 62
-10 95 -4 33 -8 76 -10 95 -7 61 -22 249 -30 385 -3 50 -8 122 -10 160 -3 39
-7 126 -10 195 -6 127 -10 215 -20 395 -4 55 -8 132 -10 170 -8 151 -16 281
-20 310 -2 17 -7 75 -10 130 -4 55 -8 111 -11 125 -2 14 -6 59 -9 100 -3 41
-8 86 -10 100 -2 14 -7 53 -10 87 -3 34 -7 70 -9 80 -2 10 -7 50 -12 88 -4 39
-8 72 -9 75 -1 3 -5 34 -9 70 -5 36 -10 74 -12 85 -2 11 -13 74 -24 140 -24
142 -27 158 -45 250 -8 39 -17 85 -20 104 -3 19 -8 37 -10 40 -2 4 -6 24 -9
46 -13 84 -142 575 -212 810 -53 175 -144 458 -351 1085 l-44 135 6 115 c3 63
8 158 10 210 5 94 13 247 20 390 4 73 11 214 20 390 4 80 9 165 21 375 2 50 7
113 9 140 2 28 7 93 10 145 4 52 8 111 10 130 2 19 7 73 10 120 4 47 8 92 10
100 1 8 6 53 10 100 4 47 9 96 10 110 2 14 6 57 9 95 4 39 9 81 11 95 2 14 7
48 9 75 10 94 16 140 20 160 2 11 7 51 11 88 3 37 8 76 10 85 1 9 6 42 9 73 4
31 8 65 10 75 2 11 7 44 11 74 4 30 9 62 10 70 2 8 6 37 9 63 4 26 11 69 16
95 4 26 12 74 15 107 4 33 9 63 11 66 2 4 6 28 9 55 4 27 10 68 16 92 5 23 12
59 14 80 3 20 8 48 11 62 2 14 7 39 9 55 3 17 8 41 10 55 3 14 8 37 10 51 94
519 276 1265 440 1799 32 102 65 212 75 245 25 81 121 361 177 515 25 69 54
148 64 175 48 133 210 533 259 640 10 22 37 83 60 135 23 52 49 111 57 130 70
157 427 859 458 901 6 8 17 28 25 44 57 116 390 658 520 845 165 236 221 315
300 422 50 67 102 137 115 153 14 17 62 77 107 135 45 58 87 110 93 116 5 6
24 28 40 48 17 21 37 46 45 56 8 10 38 44 65 76 319 374 740 803 1075 1094 47
40 87 76 90 80 3 3 19 16 35 29 17 12 46 37 65 54 20 18 56 48 80 66 25 19 54
43 65 53 48 43 207 166 420 324 229 170 748 508 952 620 27 15 53 30 58 34 6
4 35 21 65 38 30 16 89 48 130 71 313 174 947 468 1285 596 39 15 84 33 102
41 17 8 33 14 36 14 3 0 18 5 34 12 15 6 33 12 38 14 6 1 39 13 75 27 110 42
533 182 640 212 25 7 99 29 165 48 208 62 666 176 815 203 14 3 81 16 150 30
69 14 143 28 165 30 22 3 56 9 75 14 19 5 71 14 115 20 44 7 87 13 95 15 8 2
38 6 65 9 28 4 77 11 110 16 33 5 80 12 104 15 23 3 55 7 70 9 14 3 53 7 86
11 33 3 76 8 95 10 19 2 62 7 95 10 33 3 76 8 95 10 19 2 73 7 120 11 47 3 99
8 115 9 17 2 80 6 140 10 61 4 133 9 160 10 28 2 138 7 245 11 107 3 196 7
197 8 6 5 698 -2 837 -9z m-3619 -24783 c39 -11 144 -50 235 -87 198 -81 252
-101 440 -165 209 -70 487 -151 600 -174 14 -3 77 -17 140 -31 105 -23 282
-56 370 -69 171 -26 318 -45 395 -52 33 -2 78 -7 100 -9 245 -27 933 -27 1220
0 28 2 79 7 115 10 36 3 76 8 90 10 14 2 56 7 93 10 37 4 78 8 89 10 12 3 46
7 77 10 31 3 63 7 71 10 8 2 38 6 65 10 28 3 76 10 107 16 78 14 97 17 139 23
20 3 42 8 50 10 8 3 30 7 49 10 62 10 166 31 345 71 180 40 279 65 560 140
102 28 472 141 635 195 192 64 278 80 400 75 496 -19 857 -482 756 -970 -46
-223 -205 -437 -403 -542 -85 -45 -314 -124 -663 -227 -124 -37 -245 -73 -270
-81 -66 -20 -530 -136 -565 -142 -16 -2 -56 -11 -88 -19 -32 -8 -125 -28 -205
-45 -143 -29 -166 -33 -234 -44 -18 -3 -40 -8 -48 -10 -8 -2 -33 -6 -55 -10
-22 -3 -80 -12 -130 -20 -128 -20 -160 -25 -268 -40 -23 -3 -53 -8 -67 -10
-14 -2 -54 -7 -90 -11 -36 -3 -72 -7 -80 -9 -8 -2 -51 -6 -95 -9 -44 -4 -93
-9 -110 -11 -305 -41 -1147 -52 -1525 -20 -25 2 -81 6 -125 10 -44 4 -96 8
-115 10 -19 2 -64 6 -100 10 -36 3 -76 8 -90 10 -14 3 -45 7 -70 10 -71 8
-121 15 -180 25 -30 5 -75 12 -100 15 -174 22 -670 133 -940 210 -473 134
-1056 358 -1191 456 -170 124 -280 290 -326 494 -12 57 -14 74 -15 149 -5 281
129 537 361 689 67 44 84 53 156 83 130 53 354 65 490 26z"/>
<path d="M12480 26764 c-802 -154 -1496 -678 -1873 -1415 -140 -273 -190 -424
-222 -669 -31 -244 -24 -1378 10 -1585 3 -16 7 -50 10 -75 19 -163 108 -465
191 -646 13 -29 24 -56 24 -59 0 -4 38 -82 84 -173 206 -412 443 -740 761
-1057 159 -158 170 -168 315 -286 336 -274 732 -498 1140 -646 174 -63 347
-105 530 -128 25 -3 61 -7 80 -10 147 -19 137 -18 301 -30 48 -3 104 -8 125
-10 255 -26 1173 -26 1444 0 19 2 73 6 120 10 47 3 99 8 116 11 17 3 46 6 65
8 236 24 585 123 854 244 198 88 583 304 674 378 9 7 62 46 118 88 55 41 112
83 125 94 12 11 54 46 92 79 234 197 512 505 698 773 63 91 190 297 216 350 6
14 16 32 22 40 19 29 116 236 152 325 93 228 185 558 203 730 4 33 8 62 10 65
1 3 6 43 10 90 4 47 8 92 10 100 2 8 6 53 10 99 4 47 8 92 10 100 2 9 6 52 10
97 3 44 8 89 10 100 2 10 4 22 4 26 1 7 318 171 333 172 4 1 13 7 20 14 6 6
17 12 23 12 6 0 42 24 78 53 111 89 221 134 377 157 63 9 1329 5 1475 -5 400
-27 485 -53 920 -273 149 -76 250 -133 251 -142 1 -8 5 -53 8 -98 4 -46 9 -98
11 -115 4 -34 11 -103 20 -202 8 -85 20 -175 31 -230 3 -11 7 -36 10 -55 19
-124 137 -527 187 -641 8 -19 36 -83 62 -144 103 -238 242 -481 408 -710 83
-114 173 -228 242 -305 51 -58 298 -304 350 -350 226 -198 470 -368 750 -522
172 -96 584 -274 675 -293 8 -2 40 -10 71 -19 31 -9 65 -18 75 -20 11 -2 39
-9 64 -16 25 -7 57 -14 72 -15 15 -2 53 -8 85 -14 192 -33 367 -45 843 -57
578 -14 1129 -2 1360 31 14 2 50 6 80 10 101 12 335 57 395 75 260 80 361 119
540 206 212 103 487 270 677 412 163 123 284 227 472 408 52 50 204 224 277
316 320 405 552 870 687 1378 30 110 74 319 87 405 3 23 7 50 9 60 2 11 7 52
11 90 5 39 9 79 11 90 23 196 23 772 -1 890 -3 11 -7 43 -10 70 -2 28 -7 61
-9 75 -2 14 -10 59 -16 100 -17 102 -15 94 -45 214 -70 289 -174 549 -310 781
-89 152 -128 207 -256 358 -244 289 -535 502 -904 662 -131 56 -393 137 -520
159 -16 3 -50 9 -75 14 -25 5 -241 8 -480 6 -3668 -19 -3825 -20 -3837 -27 -5
-3 -25 -9 -44 -12 -102 -18 -438 -124 -463 -147 -6 -4 -17 -8 -25 -8 -9 0 -68
-26 -131 -58 -333 -169 -552 -352 -951 -793 -13 -15 -59 -65 -102 -111 l-77
-85 -297 99 c-296 98 -406 131 -523 153 -14 3 -36 7 -50 10 -36 7 -76 15 -167
29 -16 3 -68 10 -118 16 -49 6 -103 13 -120 15 -16 3 -68 7 -115 11 -47 3 -96
7 -110 10 -131 21 -847 21 -1120 -1 -121 -10 -191 -16 -209 -20 -11 -2 -48 -6
-83 -9 -35 -4 -72 -8 -83 -10 -11 -2 -40 -7 -65 -10 -25 -3 -55 -8 -66 -10
-12 -2 -39 -7 -60 -11 -129 -20 -346 -80 -616 -169 l-308 -103 -42 46 c-23 25
-69 75 -102 111 -34 36 -110 119 -171 185 -117 126 -249 256 -328 324 -309
264 -650 429 -1107 537 -64 15 -135 18 -485 20 -421 3 -2385 14 -3310 18 -384
2 -537 0 -585 -10z m15755 -1588 c114 -7 193 -15 215 -21 8 -2 35 -7 60 -10
116 -15 265 -64 355 -115 183 -106 345 -359 389 -610 3 -19 8 -46 11 -60 3
-14 7 -47 10 -75 3 -27 7 -61 10 -75 20 -121 29 -740 12 -885 -5 -38 -10 -88
-13 -110 -3 -22 -12 -71 -20 -110 -8 -38 -17 -82 -21 -97 -3 -16 -9 -28 -14
-28 -5 0 -9 -7 -9 -15 0 -28 -93 -187 -165 -280 -140 -183 -385 -405 -620
-560 -95 -63 -269 -163 -315 -181 -8 -3 -29 -12 -45 -19 -17 -8 -53 -23 -80
-35 -27 -12 -63 -27 -80 -35 -98 -43 -308 -105 -420 -124 -33 -6 -73 -13 -90
-15 -38 -7 -111 -14 -195 -21 -36 -3 -85 -8 -110 -11 -81 -9 -733 -12 -825 -4
-182 17 -251 25 -305 35 -14 3 -41 8 -60 11 -19 3 -43 7 -52 10 -9 3 -25 6
-35 8 -221 44 -524 165 -783 314 -608 350 -882 748 -957 1387 -16 136 -8 612
12 760 3 17 7 50 10 75 11 94 18 129 41 209 37 128 90 200 310 421 l171 172
259 3 c142 2 491 6 774 10 706 8 988 14 1035 19 22 2 76 7 120 11 44 4 98 9
120 11 58 5 190 15 265 19 36 2 92 6 125 9 33 3 137 8 230 11 94 4 171 8 172
8 5 5 422 -1 508 -7z m-13470 -70 c303 -3 726 -9 940 -12 215 -2 525 -6 689
-8 l299 -3 119 -114 c77 -73 137 -122 168 -135 138 -62 222 -204 271 -456 29
-151 32 -632 5 -798 -3 -14 -7 -53 -10 -87 -7 -71 -15 -136 -22 -173 -2 -14
-7 -41 -10 -60 -9 -60 -34 -152 -65 -239 -157 -447 -499 -780 -1109 -1080
-204 -100 -236 -114 -360 -155 -97 -31 -235 -62 -320 -72 -315 -34 -744 -45
-1115 -30 -99 4 -193 9 -210 11 -16 2 -57 6 -89 10 -101 10 -120 13 -245 45
-38 9 -167 53 -206 70 -11 4 -47 18 -80 30 -100 38 -348 164 -472 241 -369
229 -681 538 -803 793 -89 189 -115 376 -115 836 0 324 8 460 41 648 28 169
54 243 125 363 126 212 272 293 619 343 19 3 69 8 110 11 41 3 98 8 125 10 28
3 174 8 325 11 151 4 276 7 277 8 3 2 562 -2 1118 -8z"/>
</g>
</svg>
