<?xml version="1.0" encoding="UTF-8" standalone="no"?>
<svg
   xmlns:dc="http://purl.org/dc/elements/1.1/"
   xmlns:cc="http://creativecommons.org/ns#"
   xmlns:rdf="http://www.w3.org/1999/02/22-rdf-syntax-ns#"
   xmlns:svg="http://www.w3.org/2000/svg"
   xmlns="http://www.w3.org/2000/svg"
   xmlns:sodipodi="http://sodipodi.sourceforge.net/DTD/sodipodi-0.dtd"
   xmlns:inkscape="http://www.inkscape.org/namespaces/inkscape"
   inkscape:version="1.0 (4035a4fb49, 2020-05-01)"
   sodipodi:docname="3rrr_logo.svg"
   viewBox="0 0 1091.8418 1091.8418"
   height="1091.8418"
   width="1091.8418"
   id="svg3757"
   version="1.1">
  <metadata
     id="metadata3763">
    <rdf:RDF>
      <cc:Work
         rdf:about="">
        <dc:format>image/svg+xml</dc:format>
        <dc:type
           rdf:resource="http://purl.org/dc/dcmitype/StillImage" />
        <dc:title></dc:title>
      </cc:Work>
    </rdf:RDF>
  </metadata>
  <defs
     id="defs3761" />
  <sodipodi:namedview
     inkscape:current-layer="g3765"
     inkscape:window-maximized="0"
     inkscape:window-y="151"
     inkscape:window-x="2191"
     inkscape:cy="543.1994"
     inkscape:cx="1391.15"
     inkscape:zoom="0.27102446"
     fit-margin-bottom="0"
     fit-margin-right="0"
     fit-margin-left="0"
     fit-margin-top="0"
     showgrid="false"
     id="namedview3759"
     inkscape:window-height="791"
     inkscape:window-width="1666"
     inkscape:pageshadow="2"
     inkscape:pageopacity="0"
     guidetolerance="10"
     gridtolerance="10"
     objecttolerance="10"
     borderopacity="1"
     bordercolor="#666666"
     pagecolor="#ffffff"
     inkscape:document-rotation="0" />
  <g
     transform="translate(-69.716044,-13.348241)"
     id="g3765"
     inkscape:label="Image"
     inkscape:groupmode="layer">
    <path
       style="fill:#000000;stroke-width:3.5031"
       d="M 78.507329,559.16959 V 327.80368 l 128.738821,1.03671 c 128.15148,1.03271 128.81775,1.0751 145.98448,9.52462 23.09058,11.36461 42.8005,31.75592 53.93692,55.80144 7.64832,16.51393 9.39173,26.03596 10.54466,57.58911 1.88855,51.69758 -6.78877,79.86212 -32.91477,106.83581 l -18.11144,18.69896 8.11145,5.31483 c 11.47189,7.51665 27.87166,34.65085 34.62947,57.29665 3.16239,10.5968 7.93282,44.61398 10.60112,75.59347 2.66869,30.97953 5.90872,60.5369 7.20033,65.68307 l 2.34845,9.35673 h -56.0496 c -65.48177,0 -57.99245,6.59739 -63.6657,-56.08201 -5.00561,-55.29781 -6.97638,-66.26769 -14.61592,-81.34244 -9.93377,-19.60153 -21.07292,-23.71813 -64.17941,-23.71813 h -36.95653 v 80.57134 80.57124 H 136.30834 78.507329 Z M 274.9412,527.78865 c 18.35209,-5.0981 28.4683,-17.62372 30.39044,-37.62971 2.21611,-23.06221 -5.34265,-40.09359 -21.11561,-47.5783 -9.23498,-4.38235 -22.14177,-5.85835 -51.22584,-5.85835 h -38.88053 v 47.29179 47.29193 l 34.15512,-0.028 c 18.78542,-0.0105 39.78969,-1.58471 46.67642,-3.49779 z m 167.88863,31.54219 V 328.12622 h 122.47706 c 114.06236,0 123.76877,0.48323 141.27791,7.03417 51.45838,19.25318 79.87628,71.6911 74.55961,137.58147 -3.51359,43.54647 -24.40896,87.98661 -45.99463,97.82161 l -8.71814,3.97241 12.45597,10.26741 c 25.84443,21.30327 38.32462,59.48706 43.62372,133.46963 1.94958,27.22077 5.02836,54.61568 6.84229,60.87741 l 3.29706,11.38501 H 735.492 678.33303 l -2.1163,-14.88804 c -1.16368,-8.1886 -3.76361,-33.01676 -5.77755,-55.17387 -4.58351,-50.43207 -8.18402,-63.94661 -20.80289,-78.08117 l -10.04159,-11.24796 -42.33279,-1.16908 -42.33298,-1.16913 v 80.86475 80.86463 h -56.0497 -56.0494 z m 199.74042,-33.7137 c 17.60934,-7.04595 24.45798,-19.40927 24.45798,-44.15269 0,-35.61339 -14.98665,-44.74216 -73.45277,-44.74216 h -38.64653 v 47.29179 47.29193 h 36.71169 c 25.70585,0 40.97417,-1.70545 50.92963,-5.68887 z M 803.649,559.16959 V 327.80368 l 128.73894,1.03671 128.73896,1.03667 17.5154,9.33082 c 23.4127,12.4724 41.3331,31.7355 53.2395,57.22806 9.0779,19.43762 9.8055,24.1806 9.6707,63.05581 -0.1822,52.90056 -7.7167,75.46442 -33.6448,100.77559 l -17.1085,16.70098 12.538,11.00832 c 25.5543,22.43715 36.2466,58.7643 43.1221,146.50849 1.8871,24.08378 4.5151,46.5474 5.8399,49.91914 2.2339,5.68396 -1.6839,6.13039 -53.7788,6.13039 -51.3817,0 -56.3624,-0.54813 -58.224,-6.41371 -1.1203,-3.52756 -4.3543,-30.56697 -7.1887,-60.08752 -8.2292,-85.71473 -15.4673,-94.64131 -76.73848,-94.64131 h -37.11778 v 80.57135 80.57119 H 861.45012 803.649 Z m 199.3489,-32.44014 c 18.4693,-6.47177 26.6232,-20.17232 26.4823,-44.49828 -0.2067,-35.63421 -16.1188,-45.50888 -73.33385,-45.50888 h -36.89491 v 47.29179 47.29193 l 35.90674,-0.19722 c 19.74879,-0.10583 41.2767,-2.07924 47.83972,-4.37892 z"
       id="path849"
       sodipodi:nodetypes="ccccssscsssscsssscccccccsssccccccccsssscssscccsssccccccccssscccssccccsscscsssssssccccccsssccccss" />
  </g>
</svg>
