<?xml version="1.0" encoding="UTF-8" standalone="no"?>
<svg
   xmlns:dc="http://purl.org/dc/elements/1.1/"
   xmlns:cc="http://creativecommons.org/ns#"
   xmlns:rdf="http://www.w3.org/1999/02/22-rdf-syntax-ns#"
   xmlns:svg="http://www.w3.org/2000/svg"
   xmlns="http://www.w3.org/2000/svg"
   xmlns:sodipodi="http://sodipodi.sourceforge.net/DTD/sodipodi-0.dtd"
   xmlns:inkscape="http://www.inkscape.org/namespaces/inkscape"
   inkscape:version="1.0 (4035a4fb49, 2020-05-01)"
   sodipodi:docname="bandcamp.svg"
   viewBox="0 0 512 512"
   height="512"
   width="512"
   id="svg2592"
   version="1.1">
  <metadata
     id="metadata2598">
    <rdf:RDF>
      <cc:Work
         rdf:about="">
        <dc:format>image/svg+xml</dc:format>
        <dc:type
           rdf:resource="http://purl.org/dc/dcmitype/StillImage" />
        <dc:title></dc:title>
      </cc:Work>
    </rdf:RDF>
  </metadata>
  <defs
     id="defs2596" />
  <sodipodi:namedview
     inkscape:current-layer="g2600"
     inkscape:window-maximized="0"
     inkscape:window-y="0"
     inkscape:window-x="0"
     inkscape:cy="273.35226"
     inkscape:cx="-98.898228"
     inkscape:zoom="0.48958858"
     showgrid="false"
     id="namedview2594"
     inkscape:window-height="614"
     inkscape:window-width="1510"
     inkscape:pageshadow="2"
     inkscape:pageopacity="0"
     guidetolerance="10"
     gridtolerance="10"
     objecttolerance="10"
     borderopacity="1"
     bordercolor="#666666"
     pagecolor="#ffffff" />
  <g
     id="g2600"
     inkscape:label="Image"
     inkscape:groupmode="layer">
    <path
       id="path3167"
       d="m 238.54253,515.46519 c -2.75,-0.22354 -11.075,-1.30286 -18.5,-2.3985 C 149.074,502.59457 85.284714,461.99851 44.869548,401.58507 c -20.20565,-30.20384 -34.04083,-66.146 -40.0325898,-104 -3.18257,-20.10643 -3.18257,-54.89357 0,-75 C 16.370828,149.71785 55.979748,87.427169 116.54252,46.912089 c 30.20384,-20.20566 66.14601,-34.04083 104.00001,-40.03259 20.10643,-3.18257 54.89357,-3.18257 75,0 28.38616,4.49314 51.15718,11.72486 76.42558,24.27159 50.11036,24.8817 90.12669,64.89803 115.00839,115.008391 12.54673,25.26841 19.77845,48.03943 24.27159,76.42559 3.18257,20.10643 3.18257,54.89357 0,75 -11.53387,72.86722 -51.14279,135.1579 -111.70557,175.67298 -29.92886,20.0217 -66.20912,34.05551 -102.99999,39.84211 -12.67432,1.99346 -45.90255,3.34839 -58,2.36503 z M 309.3484,337.33507 c 4.57249,-7.35615 84.69412,-155.97713 84.69412,-157.10269 0,-0.85481 -23.57857,-1.14731 -92.4858,-1.14731 h -92.48581 l -2.39236,3.75 c -3.80734,5.96799 -83.81974,154.23649 -84.3714,156.34604 -0.48687,1.86182 1.55148,1.90396 92.1062,1.90396 h 92.60409 z"
       style="fill:#1c9fc2" />
    <path
       d=""
       id="path3165"
       style="fill:#000000" />
  </g>
</svg>
