<?xml version="1.0" encoding="UTF-8" standalone="no"?>
<svg
   xmlns:dc="http://purl.org/dc/elements/1.1/"
   xmlns:cc="http://creativecommons.org/ns#"
   xmlns:rdf="http://www.w3.org/1999/02/22-rdf-syntax-ns#"
   xmlns:svg="http://www.w3.org/2000/svg"
   xmlns="http://www.w3.org/2000/svg"
   xmlns:sodipodi="http://sodipodi.sourceforge.net/DTD/sodipodi-0.dtd"
   xmlns:inkscape="http://www.inkscape.org/namespaces/inkscape"
   version="1.1"
   id="svg3757"
   width="1091.8418"
   height="1091.8418"
   viewBox="0 0 1091.8418 1091.8418"
   sodipodi:docname="res_logo.svg"
   inkscape:version="1.0 (4035a4fb49, 2020-05-01)">
  <metadata
     id="metadata3763">
    <rdf:RDF>
      <cc:Work
         rdf:about="">
        <dc:format>image/svg+xml</dc:format>
        <dc:type
           rdf:resource="http://purl.org/dc/dcmitype/StillImage" />
        <dc:title></dc:title>
      </cc:Work>
    </rdf:RDF>
  </metadata>
  <defs
     id="defs3761" />
  <sodipodi:namedview
     inkscape:document-rotation="0"
     pagecolor="#ffffff"
     bordercolor="#666666"
     borderopacity="1"
     objecttolerance="10"
     gridtolerance="10"
     guidetolerance="10"
     inkscape:pageopacity="0"
     inkscape:pageshadow="2"
     inkscape:window-width="1666"
     inkscape:window-height="791"
     id="namedview3759"
     showgrid="false"
     fit-margin-top="0"
     fit-margin-left="0"
     fit-margin-right="0"
     fit-margin-bottom="0"
     inkscape:zoom="0.27102446"
     inkscape:cx="1391.15"
     inkscape:cy="543.1994"
     inkscape:window-x="1715"
     inkscape:window-y="127"
     inkscape:window-maximized="0"
     inkscape:current-layer="g3765" />
  <g
     inkscape:groupmode="layer"
     inkscape:label="Image"
     id="g3765"
     transform="translate(-69.716044,-13.348241)">
    <path
       transform="translate(69.716044,13.348241)"
       d="M 545.92188,0 C 401.14157,0 262.27162,57.521347 159.89648,159.89648 57.52134,262.27162 -9.9999998e-7,401.14156 0,545.92188 c -1.1e-5,144.78031 57.52134,283.64828 159.89648,386.02343 102.37514,102.37509 241.24508,159.89649 386.0254,159.89649 144.78031,0 283.6483,-57.5214 386.02343,-159.89649 102.37519,-102.37515 159.89649,-241.24312 159.89649,-386.02343 0,-144.78031 -57.5213,-283.65026 -159.89649,-386.0254 C 829.57018,57.521347 690.70219,0 545.92188,0 Z m -0.002,60.234375 c 128.82135,0 252.34119,51.165405 343.43164,142.255855 91.09044,91.09046 142.25584,214.61029 142.25584,343.43165 0,128.82134 -51.1654,252.34119 -142.25584,343.43164 -91.09045,91.09045 -214.61029,142.25388 -343.43164,142.25388 -40.95701,0 -81.37529,-5.1796 -120.38867,-15.1621 l -0.25586,-80.12694 -0.33984,-107 h -50.66016 -50.6582 V 544.65234 259.98438 h 50.66601 50.66797 V 154.61914 75.546875 c 39.19288,-10.080214 79.80854,-15.3125 120.96875,-15.3125 z M 426.2832,261.31836 v 44.66602 44.66796 l 72.33399,0.0469 c 78.96715,0.0508 84.11977,0.43274 102.58789,7.61719 20.06748,7.80663 35.77901,22.0672 45.17187,41.00195 7.13337,14.37994 9.71791,27.17886 8.75391,43.33398 -2.34635,39.32104 -21.2321,63.6109 -58.20117,74.85157 -9.82549,2.9875 -11.20879,3.04151 -90.3125,3.49218 l -80.33399,0.45703 v 45.91993 45.91992 l 62.82618,0.3457 62.82617,0.34571 47.40039,107.66796 47.39844,107.66602 h 55.79296 55.79297 l -1.85937,-4.33398 c -1.022,-2.38334 -24.44993,-54.66165 -52.0625,-116.17579 -27.61257,-61.51415 -50.03424,-111.9923 -49.82617,-112.17187 0.20808,-0.17956 5.10941,-2.4966 10.89062,-5.15039 45.54489,-20.90679 77.61101,-62.63149 89.04297,-115.85742 3.91834,-18.2434 4.25785,-55.56324 0.66797,-73.47657 -11.01876,-54.98307 -40.70187,-94.74594 -88.62891,-118.72656 -21.3267,-10.67098 -45.74322,-17.60492 -72.92773,-20.71289 -6.87422,-0.78592 -45.17454,-1.37581 -89.66602,-1.38281 z"
       style="color:#000000;font-style:normal;font-variant:normal;font-weight:normal;font-stretch:normal;font-size:medium;line-height:normal;font-family:sans-serif;font-variant-ligatures:normal;font-variant-position:normal;font-variant-caps:normal;font-variant-numeric:normal;font-variant-alternates:normal;font-variant-east-asian:normal;font-feature-settings:normal;font-variation-settings:normal;text-indent:0;text-align:start;text-decoration:none;text-decoration-line:none;text-decoration-style:solid;text-decoration-color:#000000;letter-spacing:normal;word-spacing:normal;text-transform:none;writing-mode:lr-tb;direction:ltr;text-orientation:mixed;dominant-baseline:auto;baseline-shift:baseline;text-anchor:start;white-space:normal;shape-padding:0;shape-margin:0;inline-size:0;clip-rule:nonzero;display:inline;overflow:visible;visibility:visible;opacity:1;isolation:auto;mix-blend-mode:normal;color-interpolation:sRGB;color-interpolation-filters:linearRGB;solid-color:#000000;solid-opacity:1;vector-effect:none;fill:#000000;fill-opacity:1;fill-rule:nonzero;stroke:none;stroke-width:36.0658;stroke-linecap:butt;stroke-linejoin:round;stroke-miterlimit:4;stroke-dasharray:none;stroke-dashoffset:0;stroke-opacity:1;color-rendering:auto;image-rendering:auto;shape-rendering:auto;text-rendering:auto;enable-background:accumulate;stop-color:#000000;stop-opacity:1"
       id="path4339" />
  </g>
</svg>
